<mxfile host="Electron" modified="2023-12-05T09:03:22.965Z" agent="Mozilla/5.0 (Windows NT 10.0; Win64; x64) AppleWebKit/537.36 (KHTML, like Gecko) draw.io/21.7.5 Chrome/114.0.5735.289 Electron/25.8.1 Safari/537.36" etag="2dV0y60avydhrquTbtwo" version="21.7.5" type="device">
  <diagram name="Page-1" id="XiUl2e1VmcisIDIWD2h4">
    <mxGraphModel dx="890" dy="428" grid="1" gridSize="10" guides="1" tooltips="1" connect="1" arrows="1" fold="1" page="1" pageScale="1" pageWidth="827" pageHeight="1169" math="0" shadow="0">
      <root>
        <mxCell id="0" />
        <mxCell id="1" parent="0" />
        <mxCell id="pZKNz0ltQ5g551rUjrX7-2" value="" style="shape=umlLifeline;perimeter=lifelinePerimeter;whiteSpace=wrap;html=1;container=1;dropTarget=0;collapsible=0;recursiveResize=0;outlineConnect=0;portConstraint=eastwest;newEdgeStyle={&quot;curved&quot;:0,&quot;rounded&quot;:0};participant=umlActor;" vertex="1" parent="1">
          <mxGeometry x="300" y="130" width="20" height="270" as="geometry" />
        </mxCell>
        <mxCell id="pZKNz0ltQ5g551rUjrX7-3" value="Main" style="shape=umlLifeline;perimeter=lifelinePerimeter;whiteSpace=wrap;html=1;container=1;dropTarget=0;collapsible=0;recursiveResize=0;outlineConnect=0;portConstraint=eastwest;newEdgeStyle={&quot;curved&quot;:0,&quot;rounded&quot;:0};" vertex="1" parent="1">
          <mxGeometry x="430" y="130" width="100" height="270" as="geometry" />
        </mxCell>
        <mxCell id="pZKNz0ltQ5g551rUjrX7-10" value="" style="html=1;points=[[0,0,0,0,5],[0,1,0,0,-5],[1,0,0,0,5],[1,1,0,0,-5]];perimeter=orthogonalPerimeter;outlineConnect=0;targetShapes=umlLifeline;portConstraint=eastwest;newEdgeStyle={&quot;curved&quot;:0,&quot;rounded&quot;:0};" vertex="1" parent="pZKNz0ltQ5g551rUjrX7-3">
          <mxGeometry x="45" y="80" width="10" height="170" as="geometry" />
        </mxCell>
        <mxCell id="pZKNz0ltQ5g551rUjrX7-8" value="" style="endArrow=classic;html=1;rounded=0;" edge="1" parent="pZKNz0ltQ5g551rUjrX7-3" source="pZKNz0ltQ5g551rUjrX7-10" target="pZKNz0ltQ5g551rUjrX7-10">
          <mxGeometry width="50" height="50" relative="1" as="geometry">
            <mxPoint x="60" y="90" as="sourcePoint" />
            <mxPoint x="60" y="120" as="targetPoint" />
            <Array as="points">
              <mxPoint x="80" y="90" />
              <mxPoint x="80" y="120" />
            </Array>
          </mxGeometry>
        </mxCell>
        <mxCell id="pZKNz0ltQ5g551rUjrX7-4" value="Client class" style="shape=umlLifeline;perimeter=lifelinePerimeter;whiteSpace=wrap;html=1;container=1;dropTarget=0;collapsible=0;recursiveResize=0;outlineConnect=0;portConstraint=eastwest;newEdgeStyle={&quot;curved&quot;:0,&quot;rounded&quot;:0};" vertex="1" parent="1">
          <mxGeometry x="630" y="130" width="100" height="270" as="geometry" />
        </mxCell>
        <mxCell id="pZKNz0ltQ5g551rUjrX7-13" value="" style="html=1;points=[[0,0,0,0,5],[0,1,0,0,-5],[1,0,0,0,5],[1,1,0,0,-5]];perimeter=orthogonalPerimeter;outlineConnect=0;targetShapes=umlLifeline;portConstraint=eastwest;newEdgeStyle={&quot;curved&quot;:0,&quot;rounded&quot;:0};" vertex="1" parent="pZKNz0ltQ5g551rUjrX7-4">
          <mxGeometry x="45" y="80" width="10" height="170" as="geometry" />
        </mxCell>
        <mxCell id="pZKNz0ltQ5g551rUjrX7-19" value="" style="endArrow=classic;html=1;rounded=0;" edge="1" parent="pZKNz0ltQ5g551rUjrX7-4" source="pZKNz0ltQ5g551rUjrX7-13" target="pZKNz0ltQ5g551rUjrX7-13">
          <mxGeometry width="50" height="50" relative="1" as="geometry">
            <mxPoint x="60" y="200" as="sourcePoint" />
            <mxPoint x="60" y="230" as="targetPoint" />
            <Array as="points">
              <mxPoint x="80" y="200" />
              <mxPoint x="80" y="230" />
            </Array>
          </mxGeometry>
        </mxCell>
        <mxCell id="pZKNz0ltQ5g551rUjrX7-5" value="Article class" style="shape=umlLifeline;perimeter=lifelinePerimeter;whiteSpace=wrap;html=1;container=1;dropTarget=0;collapsible=0;recursiveResize=0;outlineConnect=0;portConstraint=eastwest;newEdgeStyle={&quot;curved&quot;:0,&quot;rounded&quot;:0};" vertex="1" parent="1">
          <mxGeometry x="830" y="130" width="100" height="280" as="geometry" />
        </mxCell>
        <mxCell id="pZKNz0ltQ5g551rUjrX7-6" value="Database" style="shape=umlLifeline;perimeter=lifelinePerimeter;whiteSpace=wrap;html=1;container=1;dropTarget=0;collapsible=0;recursiveResize=0;outlineConnect=0;portConstraint=eastwest;newEdgeStyle={&quot;curved&quot;:0,&quot;rounded&quot;:0};" vertex="1" parent="1">
          <mxGeometry x="1080" y="130" width="100" height="280" as="geometry" />
        </mxCell>
        <mxCell id="pZKNz0ltQ5g551rUjrX7-16" value="" style="html=1;points=[[0,0,0,0,5],[0,1,0,0,-5],[1,0,0,0,5],[1,1,0,0,-5]];perimeter=orthogonalPerimeter;outlineConnect=0;targetShapes=umlLifeline;portConstraint=eastwest;newEdgeStyle={&quot;curved&quot;:0,&quot;rounded&quot;:0};" vertex="1" parent="pZKNz0ltQ5g551rUjrX7-6">
          <mxGeometry x="45" y="90" width="10" height="170" as="geometry" />
        </mxCell>
        <mxCell id="pZKNz0ltQ5g551rUjrX7-7" value="click on creation button" style="html=1;verticalAlign=bottom;endArrow=block;curved=0;rounded=0;" edge="1" parent="1" target="pZKNz0ltQ5g551rUjrX7-10">
          <mxGeometry width="80" relative="1" as="geometry">
            <mxPoint x="310" y="220" as="sourcePoint" />
            <mxPoint x="470" y="220" as="targetPoint" />
          </mxGeometry>
        </mxCell>
        <mxCell id="pZKNz0ltQ5g551rUjrX7-9" value="show creation page" style="html=1;verticalAlign=bottom;endArrow=open;dashed=1;endSize=8;curved=0;rounded=0;exitX=0.5;exitY=0.235;exitDx=0;exitDy=0;exitPerimeter=0;" edge="1" parent="1" source="pZKNz0ltQ5g551rUjrX7-10" target="pZKNz0ltQ5g551rUjrX7-2">
          <mxGeometry relative="1" as="geometry">
            <mxPoint x="470" y="250" as="sourcePoint" />
            <mxPoint x="410" y="250" as="targetPoint" />
          </mxGeometry>
        </mxCell>
        <mxCell id="pZKNz0ltQ5g551rUjrX7-11" value="fill infos textbox" style="html=1;verticalAlign=bottom;endArrow=block;curved=0;rounded=0;" edge="1" parent="1">
          <mxGeometry width="80" relative="1" as="geometry">
            <mxPoint x="310" y="279.8" as="sourcePoint" />
            <mxPoint x="475" y="279.8" as="targetPoint" />
          </mxGeometry>
        </mxCell>
        <mxCell id="pZKNz0ltQ5g551rUjrX7-14" value="store infos" style="html=1;verticalAlign=bottom;endArrow=block;curved=0;rounded=0;" edge="1" parent="1">
          <mxGeometry width="80" relative="1" as="geometry">
            <mxPoint x="485" y="283.8" as="sourcePoint" />
            <mxPoint x="675" y="283.8" as="targetPoint" />
          </mxGeometry>
        </mxCell>
        <mxCell id="pZKNz0ltQ5g551rUjrX7-15" value="upload infos" style="html=1;verticalAlign=bottom;endArrow=block;curved=0;rounded=0;" edge="1" parent="1">
          <mxGeometry x="-0.5276" y="7" width="80" relative="1" as="geometry">
            <mxPoint x="685" y="320" as="sourcePoint" />
            <mxPoint x="1125" y="320" as="targetPoint" />
            <mxPoint as="offset" />
          </mxGeometry>
        </mxCell>
        <mxCell id="pZKNz0ltQ5g551rUjrX7-17" value="click confirmation button" style="html=1;verticalAlign=bottom;endArrow=block;curved=0;rounded=0;" edge="1" parent="1">
          <mxGeometry width="80" relative="1" as="geometry">
            <mxPoint x="310" y="306.8" as="sourcePoint" />
            <mxPoint x="475" y="306.8" as="targetPoint" />
          </mxGeometry>
        </mxCell>
        <mxCell id="pZKNz0ltQ5g551rUjrX7-18" value="create()" style="html=1;verticalAlign=bottom;endArrow=block;curved=0;rounded=0;" edge="1" parent="1">
          <mxGeometry width="80" relative="1" as="geometry">
            <mxPoint x="485" y="309" as="sourcePoint" />
            <mxPoint x="675" y="309" as="targetPoint" />
          </mxGeometry>
        </mxCell>
        <mxCell id="pZKNz0ltQ5g551rUjrX7-20" value="showArticles()" style="html=1;verticalAlign=bottom;endArrow=open;dashed=1;endSize=8;curved=0;rounded=0;" edge="1" parent="1">
          <mxGeometry relative="1" as="geometry">
            <mxPoint x="675" y="360" as="sourcePoint" />
            <mxPoint x="485" y="360" as="targetPoint" />
          </mxGeometry>
        </mxCell>
        <mxCell id="pZKNz0ltQ5g551rUjrX7-21" value="show artciles page" style="html=1;verticalAlign=bottom;endArrow=open;dashed=1;endSize=8;curved=0;rounded=0;" edge="1" parent="1">
          <mxGeometry relative="1" as="geometry">
            <mxPoint x="475" y="360" as="sourcePoint" />
            <mxPoint x="310" y="360" as="targetPoint" />
          </mxGeometry>
        </mxCell>
      </root>
    </mxGraphModel>
  </diagram>
</mxfile>
